<?xml version="1.0" encoding="UTF-8" standalone="no"?>
<!-- Created with Inkscape (http://www.inkscape.org/) -->

<svg
   width="210mm"
   height="297mm"
   viewBox="0 0 210 297"
   version="1.1"
   id="svg5"
   inkscape:version="1.4.3 (1:1.4.3+202512261035+0d15f75042)"
   xml:space="preserve"
   sodipodi:docname="func-arch.svg"
   inkscape:export-filename="func-arch.png"
   inkscape:export-xdpi="300"
   inkscape:export-ydpi="300"
   xmlns:inkscape="http://www.inkscape.org/namespaces/inkscape"
   xmlns:sodipodi="http://sodipodi.sourceforge.net/DTD/sodipodi-0.dtd"
   xmlns:xlink="http://www.w3.org/1999/xlink"
   xmlns="http://www.w3.org/2000/svg"
   xmlns:svg="http://www.w3.org/2000/svg"><sodipodi:namedview
     id="namedview7"
     pagecolor="#ffffff"
     bordercolor="#eeeeee"
     borderopacity="1"
     inkscape:showpageshadow="0"
     inkscape:pageopacity="0"
     inkscape:pagecheckerboard="false"
     inkscape:deskcolor="#505050"
     inkscape:document-units="mm"
     showgrid="true"
     inkscape:lockguides="false"
     inkscape:zoom="1.0179639"
     inkscape:cx="417.50006"
     inkscape:cy="211.20591"
     inkscape:window-width="1920"
     inkscape:window-height="1052"
     inkscape:window-x="0"
     inkscape:window-y="0"
     inkscape:window-maximized="1"
     inkscape:current-layer="layer1"><inkscape:grid
       type="xygrid"
       id="grid9"
       originx="0"
       originy="0"
       spacingy="1"
       spacingx="1"
       units="mm" /></sodipodi:namedview><defs
     id="defs2"><symbol
       id="hardware.svg:symbol4"><title
         id="title4">Computer</title><path
         d="m 40,36 c 2.21,0 3.98,-1.79 3.98,-4 L 44,12 C 44,9.79 42.21,8 40,8 H 8 C 5.79,8 4,9.79 4,12 v 20 c 0,2.21 1.79,4 4,4 H 0 v 4 H 48 V 36 Z M 8,12 H 40 V 32 H 8 Z"
         style="stroke:none"
         id="path4" /></symbol><symbol
       id="social.svg:symbol19"><title
         id="title19">Person Outline</title><path
         d="m 24,11.8 c 2.32,0 4.2,1.88 4.2,4.2 0,2.32 -1.88,4.2 -4.2,4.2 -2.32,0 -4.2,-1.88 -4.2,-4.2 0,-2.32 1.88,-4.2 4.2,-4.2 m 0,18 c 5.95,0 12.2,2.91 12.2,4.2 v 2.2 H 11.8 V 34 c 0,-1.29 6.25,-4.2 12.2,-4.2 M 24,8 c -4.42,0 -8,3.58 -8,8 0,4.41 3.58,8 8,8 4.42,0 8,-3.59 8,-8 0,-4.42 -3.58,-8 -8,-8 z m 0,18 C 18.67,26 8,28.67 8,34 v 6 H 40 V 34 C 40,28.67 29.33,26 24,26 Z"
         style="stroke:none"
         id="path19" /></symbol><symbol
       id="dashicons-set.svg:microphone"
       viewBox="0 0 20 20"><title
         id="title162">microphone</title><path
         d="M 12,9 V 3 A 2,2 0 0 0 10,1 C 8.88,1 8,1.94 8,3 v 6 c 0,1.1 0.9,2 2,2 1.13,0 2,-0.94 2,-2 z m 4,0 c 0,2.97 -2.16,5.43 -5,5.91 V 17 h 2 c 0.56,0 1,0.45 1,1 0,0.55 -0.44,1 -1,1 H 7 C 6.45,19 6,18.55 6,18 6,17.45 6.45,17 7,17 H 9 V 14.91 C 6.17,14.43 4,11.97 4,9 4,8.45 4.45,8 5,8 5.56,8 6,8.45 6,9 a 4,4 0 1 0 8,0 c 0,-0.55 0.45,-1 1,-1 0.56,0 1,0.45 1,1 z"
         id="path162" /></symbol><symbol
       id="device.svg:symbol55"><title
         id="title54">Multitrack Audio</title><path
         d="m 14,36 h 4 V 12 h -4 z m 8,8 h 4 V 4 H 22 Z M 6,28 h 4 V 20 H 6 Z m 24,8 h 4 V 12 h -4 z m 8,-16 v 8 h 4 v -8 z"
         style="stroke:none"
         id="path55" /></symbol><symbol
       id="genericons.svg:audio"><title
         id="title7">audio</title><path
         d="m 2,6 v 4 h 3 l 3,3 V 3 L 5,6 Z M 10.121,5.878 9.414,6.585 C 9.776,6.948 10,7.448 10,8 10,8.553 9.776,9.053 9.414,9.414 l 0.707,0.707 C 10.664,9.579 11,8.829 11,8 11,7.171 10.664,6.421 10.121,5.878 Z M 11.536,4.464 10.829,5.172 C 11.553,5.895 12,6.896 12,8 c 0,1.105 -0.447,2.105 -1.171,2.829 l 0.707,0.707 C 12.44,10.632 13,9.382 13,8 13,6.619 12.44,5.369 11.536,4.464 Z"
         id="path7" /></symbol><symbol
       id="FlowSymbols.svg:Process"><title
         id="title2">Process</title><desc
         id="desc2">Any processing function.</desc><rect
         x="15"
         y="35"
         width="120"
         height="80"
         style="stroke-width:2"
         id="rect2" /></symbol><symbol
       id="font-awesome.svg:file-audio-o"
       class="Web-Application-Icons File-Type-Icons"><title
         id="title415">Audio File Outlined</title><path
         d="m 73.4,19 q 1.4,1.4 2.4,3.8 1,2.4 1,4.4 v 57.6 q 0,2 -1.4,3.4 Q 74,89.6 72,89.6 H 4.8 q -2,0 -3.4,-1.4 Q 0,86.8 0,84.8 V 4.8 Q 0,2.8 1.4,1.4 2.8,0 4.8,0 h 44.8 q 2,0 4.4,1 2.4,1 3.8,2.4 z M 51.2,6.8 V 25.6 H 70 Q 69.5,24.15 68.9,23.55 L 53.25,7.9 Q 52.65,7.3 51.2,6.8 Z M 70.4,83.2 V 32 H 49.6 q -2,0 -3.4,-1.4 -1.4,-1.4 -1.4,-3.4 V 6.4 H 6.4 V 83.2 Z M 31,42.5 q 1,0.4 1,1.5 v 27.2 q 0,1.1 -1,1.5 -0.4,0.1 -0.6,0.1 -0.6,0 -1.15,-0.45 L 20.95,64 H 14.4 Q 13.7,64 13.25,63.55 12.8,63.1 12.8,62.4 v -9.6 q 0,-0.7 0.45,-1.15 0.45,-0.45 1.15,-0.45 h 6.55 l 8.3,-8.35 Q 30.05,42.1 31,42.5 Z m 20.85,34.45 q 1.55,0 2.5,-1.2 6.45,-7.95 6.45,-18.15 0,-10.2 -6.45,-18.15 -0.8,-1.05 -2.15,-1.2 -1.35,-0.15 -2.35,0.7 -1.05,0.85 -1.175,2.175 -0.125,1.325 0.725,2.375 5,6.15 5,14.1 0,7.95 -5,14.1 -0.85,1.05 -0.725,2.375 0.125,1.325 1.175,2.125 0.9,0.75 2,0.75 z M 41.3,69.55 q 1.35,0 2.35,-1 Q 48,63.9 48,57.6 q 0,-6.3 -4.35,-10.95 -0.9,-0.95 -2.25,-1 -1.35,-0.05 -2.3,0.85 -0.95,0.9 -1,2.225 -0.05,1.325 0.9,2.325 2.6,2.85 2.6,6.55 0,3.7 -2.6,6.55 -0.95,1 -0.9,2.325 0.05,1.325 1,2.225 1,0.85 2.2,0.85 z"
         id="path415"
         style="stroke-width:0.05" /></symbol><symbol
       id="font-awesome.svg:file-o"
       class="Text-Editor-Icons File-Type-Icons"><title
         id="title23">File Outlined</title><path
         d="m 73.4,19 q 1.4,1.4 2.4,3.8 1,2.4 1,4.4 v 57.6 q 0,2 -1.4,3.4 Q 74,89.6 72,89.6 H 4.8 q -2,0 -3.4,-1.4 Q 0,86.8 0,84.8 V 4.8 Q 0,2.8 1.4,1.4 2.8,0 4.8,0 h 44.8 q 2,0 4.4,1 2.4,1 3.8,2.4 z M 51.2,6.8 V 25.6 H 70 Q 69.5,24.15 68.9,23.55 L 53.25,7.9 Q 52.65,7.3 51.2,6.8 Z M 70.4,83.2 V 32 H 49.6 q -2,0 -3.4,-1.4 -1.4,-1.4 -1.4,-3.4 V 6.4 H 6.4 v 76.8 z"
         id="path23"
         style="stroke-width:0.05" /></symbol><symbol
       id="font-awesome.svg:file-text-o"
       class="Text-Editor-Icons File-Type-Icons"><title
         id="title221">File Text Outlined</title><path
         d="m 73.4,19 q 1.4,1.4 2.4,3.8 1,2.4 1,4.4 v 57.6 q 0,2 -1.4,3.4 Q 74,89.6 72,89.6 H 4.8 q -2,0 -3.4,-1.4 Q 0,86.8 0,84.8 V 4.8 Q 0,2.8 1.4,1.4 2.8,0 4.8,0 h 44.8 q 2,0 4.4,1 2.4,1 3.8,2.4 z M 51.2,6.8 V 25.6 H 70 Q 69.5,24.15 68.9,23.55 L 53.25,7.9 Q 52.65,7.3 51.2,6.8 Z M 70.4,83.2 V 32 H 49.6 q -2,0 -3.4,-1.4 -1.4,-1.4 -1.4,-3.4 V 6.4 H 6.4 V 83.2 Z M 19.2,40 q 0,-0.7 0.45,-1.15 Q 20.1,38.4 20.8,38.4 H 56 q 0.7,0 1.15,0.45 0.45,0.45 0.45,1.15 v 3.2 q 0,0.7 -0.45,1.15 Q 56.7,44.8 56,44.8 H 20.8 q -0.7,0 -1.15,-0.45 Q 19.2,43.9 19.2,43.2 Z M 56,51.2 q 0.7,0 1.15,0.45 0.45,0.45 0.45,1.15 V 56 q 0,0.7 -0.45,1.15 Q 56.7,57.6 56,57.6 H 20.8 q -0.7,0 -1.15,-0.45 Q 19.2,56.7 19.2,56 v -3.2 q 0,-0.7 0.45,-1.15 Q 20.1,51.2 20.8,51.2 Z M 56,64 q 0.7,0 1.15,0.45 0.45,0.45 0.45,1.15 v 3.2 q 0,0.7 -0.45,1.15 Q 56.7,70.4 56,70.4 H 20.8 q -0.7,0 -1.15,-0.45 Q 19.2,69.5 19.2,68.8 v -3.2 q 0,-0.7 0.45,-1.15 Q 20.1,64 20.8,64 Z"
         id="path221"
         style="stroke-width:0.05" /></symbol><symbol
       id="font-awesome.svg:arrow-right"
       class="Directional-Icons"><title
         id="title93">arrow-right</title><path
         d="m 73.6,48 q 0,2.7 -1.85,4.55 L 39.2,85.1 q -1.95,1.85 -4.55,1.85 -2.55,0 -4.5,-1.85 L 26.4,81.35 q -1.9,-1.9 -1.9,-4.55 0,-2.65 1.9,-4.55 L 41.05,57.6 H 5.85 Q 3.25,57.6 1.625,55.725 0,53.85 0,51.2 V 44.8 Q 0,42.15 1.625,40.275 3.25,38.4 5.85,38.4 h 35.2 L 26.4,23.7 q -1.9,-1.8 -1.9,-4.5 0,-2.7 1.9,-4.5 l 3.75,-3.75 q 1.9,-1.9 4.5,-1.9 2.65,0 4.55,1.9 L 71.75,43.5 q 1.85,1.75 1.85,4.5 z"
         id="path93"
         style="stroke-width:0.05" /></symbol><symbol
       id="dashicons-set.svg:arrow-down-alt"
       viewBox="0 0 20 20"><title
         id="title26">arrow-down-alt</title><path
         d="m 9,2 h 2 v 12 l 4,-4 2,1 -7,7 -7,-7 2,-1 4,4 z"
         id="path26" /></symbol><symbol
       id="font-awesome.svg:files-o"
       class="Text-Editor-Icons"><title
         id="title175">Files Outlined</title><path
         d="m 84.8,19.2 q 2,0 3.4,1.4 1.4,1.4 1.4,3.4 v 60.8 q 0,2 -1.4,3.4 -1.4,1.4 -3.4,1.4 h -48 q -2,0 -3.4,-1.4 Q 32,86.8 32,84.8 V 70.4 H 4.8 Q 2.8,70.4 1.4,69 0,67.6 0,65.6 V 32 Q 0,30 1,27.6 2,25.2 3.4,23.8 L 23.8,3.4 Q 25.2,2 27.6,1 30,0 32,0 h 20.8 q 2,0 3.4,1.4 1.4,1.4 1.4,3.4 v 16.4 q 3.4,-2 6.4,-2 z M 57.6,29.85 42.65,44.8 H 57.6 Z M 25.6,10.65 10.65,25.6 H 25.6 Z M 35.4,43 51.2,27.2 V 6.4 H 32 v 20.8 q 0,2 -1.4,3.4 Q 29.2,32 27.2,32 H 6.4 V 64 H 32 V 51.2 q 0,-2 1,-4.4 1,-2.4 2.4,-3.8 z M 83.2,83.2 V 25.6 H 64 v 20.8 q 0,2 -1.4,3.4 -1.4,1.4 -3.4,1.4 H 38.4 v 32 z"
         id="path175"
         style="stroke-width:0.05" /></symbol><symbol
       id="file.svg:symbol8"><title
         id="title8">Cloud Queue</title><path
         d="M 38.71,20.07 C 37.35,13.19 31.28,8 24,8 18.22,8 13.21,11.28 10.7,16.07 4.69,16.72 0,21.81 0,28 0,34.63 5.37,40 12,40 h 26 c 5.52,0 10,-4.48 10,-10 0,-5.28 -4.11,-9.56 -9.29,-9.93 z M 38,36 H 12 C 7.58,36 4,32.42 4,28 4,23.58 7.58,20 12,20 h 1.42 c 1.31,-4.61 5.54,-8 10.58,-8 6.08,0 11,4.92 11,11 v 1 h 3 c 3.31,0 6,2.69 6,6 0,3.31 -2.69,6 -6,6 z"
         style="stroke:none"
         id="path8-3" /></symbol><symbol
       id="taiga.svg:icon-reload"
       viewBox="0 0 1024 1024"><title
         id="title82978">reload</title><path
         class="path1"
         d="M 509.394,0 C 275.876,0 79.91,165.98 62.116,381.896 h 60.073 C 140.142,205.927 304.179,64.159 509.394,64.159 c 182.817,0 332.954,112.517 376.243,261.486 L 732.229,281.49 716.767,343.46 959.076,413.205 1024,152.92 966.31,136.316 931.898,274.267 C 869.478,113.217 702.251,0.001 509.396,0.001 Z M 64.927,610.796 0,871.081 57.69,887.685 92.102,749.734 C 154.522,910.784 321.749,1024 514.604,1024 748.127,1024 944.09,858.02 961.887,642.104 H 901.811 C 883.858,818.071 719.821,959.841 514.606,959.841 331.789,959.841 181.652,847.324 138.363,698.355 L 291.771,742.51 307.233,680.54 64.924,610.795 Z"
         id="path82980" /></symbol><symbol
       id="device.svg:symbol48"><title
         id="title47">Devices</title><path
         d="M 8,12 H 44 V 8 H 8 C 5.79,8 4,9.79 4,12 V 34 H 0 v 6 H 28 V 34 H 8 Z m 38,4 H 34 c -1.1,0 -2,0.9 -2,2 v 20 c 0,1.1 0.9,2 2,2 h 12 c 1.1,0 2,-0.9 2,-2 V 18 c 0,-1.1 -0.9,-2 -2,-2 z M 44,34 H 36 V 20 h 8 z"
         style="stroke:none"
         id="path48" /></symbol><symbol
       id="simple-icons.svg:brand-hackthebox"
       viewBox="0 0 24 24"><title
         id="title1243">Hack The Box</title><path
         d="m 22.5106,6.4566 8e-4,-0.0123 A 0.888,0.888 0 0 0 22.2397,5.8059 C 22.2313,5.7975 22.2217,5.7904 22.213,5.7824 22.1944,5.7658 22.1759,5.7491 22.1558,5.734 22.1365,5.7193 22.1158,5.7064 22.0951,5.6934 22.0855,5.6874 22.0769,5.6803 22.067,5.6746 L 12.4576,0.1266 A 0.891,0.891 0 0 0 11.5353,0.1309 L 1.933,5.6744 C 1.9223,5.6806 1.9127,5.6884 1.9023,5.6949 1.895,5.6996 1.8873,5.7029 1.88,5.7077 1.873,5.7124 1.867,5.7183 1.86,5.7232 A 0.8769,0.8769 0 0 0 1.713,5.8565 L 1.7104,5.8595 A 0.8872,0.8872 0 0 0 1.4886,6.4442 l 9e-4,0.014 C 1.4893,6.467 1.488,6.4758 1.488,6.4846 v 11.0708 c 0,0.3277 0.1802,0.6288 0.469,0.7836 l 9.5986,5.5417 c 0.0076,0.0044 0.0158,0.0075 0.0236,0.0117 a 0.8754,0.8754 0 0 0 0.166,0.0687 c 0.0134,0.004 0.0266,0.0083 0.0401,0.0117 a 0.8793,0.8793 0 0 0 0.072,0.0142 c 0.0117,0.0019 0.0232,0.0045 0.0349,0.006 a 0.835,0.835 0 0 0 0.2157,0 c 0.0117,-0.0015 0.0232,-0.0041 0.0348,-0.006 a 0.9,0.9 0 0 0 0.072,-0.0142 c 0.0135,-0.0034 0.0267,-0.0077 0.04,-0.0117 a 0.895,0.895 0 0 0 0.0646,-0.0217 0.9134,0.9134 0 0 0 0.1015,-0.047 c 0.0078,-0.0042 0.016,-0.0072 0.0236,-0.0117 L 22.043,18.339 a 0.8888,0.8888 0 0 0 0.469,-0.7836 V 6.4779 c 0,-0.0071 -0.0012,-0.0142 -0.0014,-0.0213 z M 5.2543,6.0822 11.791,2.3082 a 0.4182,0.4182 0 0 1 0.4182,0 l 6.5366,3.774 a 0.4182,0.4182 0 0 1 0,0.7243 l -6.5367,3.774 a 0.4182,0.4182 0 0 1 -0.4182,0 L 5.2543,6.8065 a 0.4182,0.4182 0 0 1 0,-0.7243 z m 5.6134,14.3449 a 0.4172,0.4172 0 0 1 -0.626,0.3613 L 3.718,17.0218 A 0.4173,0.4173 0 0 1 3.5094,16.6605 V 9.1279 A 0.4172,0.4172 0 0 1 4.1352,8.7666 l 6.524,3.7666 a 0.4172,0.4172 0 0 1 0.2086,0.3614 v 7.5325 z m 9.623,-3.7666 a 0.4173,0.4173 0 0 1 -0.2086,0.3613 l -6.5239,3.7666 a 0.4172,0.4172 0 0 1 -0.6259,-0.3613 v -7.5325 c 0,-0.149 0.0796,-0.2868 0.2087,-0.3614 l 6.5239,-3.7666 a 0.4172,0.4172 0 0 1 0.6258,0.3613 z"
         id="path1243" /></symbol><symbol
       id="hardware.svg:symbol14"><title
         id="title14">Keyboard Arrow Left</title><path
         d="M 30.83,32.67 21.66,23.5 30.83,14.33 28,11.5 l -12,12 12,12 z"
         style="stroke:none"
         id="path14" /></symbol><symbol
       id="hardware.svg:symbol15"><title
         id="title15">Keyboard Arrow Right</title><path
         d="m 17.17,32.92 9.17,-9.17 -9.17,-9.17 2.83,-2.83 12,12 -12,12 z"
         style="stroke:none"
         id="path15" /></symbol></defs><g
     inkscape:label="Layer 1"
     inkscape:groupmode="layer"
     id="layer1"><rect
       style="fill:#0279ab;fill-opacity:0.197552;stroke-width:0.552"
       id="rect1"
       width="203.26857"
       height="91.158409"
       x="3.3081682"
       y="9.0055695" /><use
       xlink:href="#hardware.svg:symbol4"
       style="fill:#000000;stroke:#000000"
       id="use1"
       transform="matrix(0.49268516,0,0,0.49268516,45.898253,20.207973)" /><use
       xlink:href="#device.svg:symbol55"
       style="fill:#000000;stroke:#000000"
       id="use1-56"
       transform="matrix(0.26458333,0,0,0.26458333,22.416647,24.293977)" /><use
       xlink:href="#social.svg:symbol19"
       style="fill:#000000;stroke:#000000"
       id="use1-5"
       transform="matrix(0.4717025,0,0,0.4717025,4.9313754,20.335064)"
       inkscape:transform-center-x="-6.5531604"
       inkscape:transform-center-y="-18.676506" /><use
       xlink:href="#dashicons-set.svg:microphone"
       width="20"
       height="20"
       style="fill:#000000;stroke:none"
       id="use1-3"
       transform="matrix(0.4378595,0,0,0.4378595,53.575367,26.753674)" /><use
       xlink:href="#FlowSymbols.svg:Process"
       style="fill:#aaccee;stroke:#000000"
       id="use1-9"
       transform="matrix(0.26458333,0,0,0.26458333,37.960581,63.068896)" /><text
       xml:space="preserve"
       style="font-size:4.93889px;text-align:center;writing-mode:lr-tb;direction:ltr;text-anchor:middle;fill:#000000;stroke-width:0.264583"
       x="58.010891"
       y="81.443161"
       id="text2"><tspan
         sodipodi:role="line"
         id="tspan2"
         style="font-style:normal;font-variant:normal;font-weight:bold;font-stretch:normal;font-size:4.93889px;font-family:sans-serif;-inkscape-font-specification:'sans-serif Bold';stroke-width:0.264583"
         x="58.010891"
         y="81.443161">Open AI </tspan><tspan
         sodipodi:role="line"
         style="font-style:normal;font-variant:normal;font-weight:bold;font-stretch:normal;font-size:4.93889px;font-family:sans-serif;-inkscape-font-specification:'sans-serif Bold';stroke-width:0.264583"
         x="58.010891"
         y="87.616776"
         id="tspan3">Whisper STT</tspan></text><use
       xlink:href="#font-awesome.svg:file-audio-o"
       id="use1-31"
       transform="matrix(0.15915049,0,0,0.15915049,41.647464,48.676378)" /><use
       xlink:href="#dashicons-set.svg:arrow-down-alt"
       width="20"
       height="20"
       style="fill:#000000;stroke:none"
       id="use1-4"
       transform="matrix(0.26458333,0,0,0.26458333,44.866722,66.939338)" /><use
       xlink:href="#font-awesome.svg:file-text-o"
       id="use1-7"
       transform="matrix(0.16291102,0,0,0.16291102,108.98613,23.958621)" /><text
       xml:space="preserve"
       style="font-style:normal;font-variant:normal;font-weight:bold;font-stretch:normal;font-size:2.33575px;font-family:sans-serif;-inkscape-font-specification:'sans-serif Bold';writing-mode:lr-tb;direction:ltr;fill:#000000;stroke-width:0.218976"
       x="110.31296"
       y="28.181339"
       id="text4"><tspan
         sodipodi:role="line"
         id="tspan4"
         style="font-size:2.33575px;stroke-width:0.218976"
         x="110.31296"
         y="28.181339">JSON</tspan></text><use
       xlink:href="#font-awesome.svg:arrow-right"
       id="use1-8"
       transform="matrix(0.10251221,0,0,0.10251221,36.261564,26.586031)"
       style="fill:#a2bf01;fill-opacity:1" /><path
       style="fill:#a2bf01;fill-opacity:1;stroke-width:0.264583"
       d="m 51.046874,67.220141 v -4.364945 0"
       id="path5" /><path
       style="fill:#000000;fill-opacity:1;stroke:#000000;stroke-width:0.544527;stroke-dasharray:none;stroke-opacity:1"
       d="M 47.517866,67.809093 V 63.242616"
       id="path6" /><use
       xlink:href="#dashicons-set.svg:arrow-down-alt"
       width="20"
       height="20"
       style="fill:#000000;stroke:none"
       id="use6"
       transform="matrix(-0.26458333,0,0,-0.26458333,67.941802,44.727216)" /><path
       style="fill:#000000;fill-opacity:1;stroke:#000000;stroke-width:0.544527;stroke-dasharray:none;stroke-opacity:1"
       d="m 65.290658,43.857461 v 4.566477"
       id="path8" /><use
       xlink:href="#font-awesome.svg:files-o"
       id="use1-0"
       transform="matrix(0.2012,0,0,0.2012,55.872224,48.686271)" /><text
       xml:space="preserve"
       style="font-style:normal;font-variant:normal;font-weight:bold;font-stretch:normal;font-size:2.11667px;font-family:sans-serif;-inkscape-font-specification:'sans-serif Bold';writing-mode:lr-tb;direction:ltr;fill:#000000;fill-opacity:1;stroke:#000000;stroke-width:0.564999;stroke-dasharray:none;stroke-opacity:1"
       x="67.449875"
       y="61.936264"
       id="text8"><tspan
         sodipodi:role="line"
         id="tspan8"
         style="font-style:normal;font-variant:normal;font-weight:normal;font-stretch:normal;font-size:2.11667px;font-family:C059;-inkscape-font-specification:C059;stroke-width:0.565"
         x="67.449875"
         y="61.936264" /></text><text
       xml:space="preserve"
       style="font-style:normal;font-variant:normal;font-weight:bold;font-stretch:normal;font-size:1.88393px;font-family:sans-serif;-inkscape-font-specification:'sans-serif Bold';writing-mode:lr-tb;direction:ltr;fill:#000000;stroke-width:0.176617"
       x="63.671867"
       y="63.336494"
       id="text9"><tspan
         sodipodi:role="line"
         style="font-size:1.88393px;stroke-width:0.176617"
         x="63.671867"
         y="63.336494"
         id="tspan11">Semantic</tspan></text><text
       xml:space="preserve"
       style="font-style:normal;font-variant:normal;font-weight:bold;font-stretch:normal;font-size:2.33575px;font-family:sans-serif;-inkscape-font-specification:'sans-serif Bold';writing-mode:lr-tb;direction:ltr;fill:#000000;stroke-width:0.218976"
       x="57.638905"
       y="59.931915"
       id="text10"><tspan
         sodipodi:role="line"
         id="tspan10"
         style="font-size:2.33575px;stroke-width:0.218976"
         x="57.638905"
         y="59.931915">TXT</tspan></text><path
       style="fill:#000000;fill-opacity:1;stroke:#000000;stroke-width:0.564999;stroke-dasharray:none;stroke-opacity:1"
       d="m 47.505946,48.060334 v -7.99474"
       id="path12" /><path
       style="fill:#000000;fill-opacity:1;stroke:#000000;stroke-width:0.552;stroke-dasharray:none;stroke-opacity:1"
       d="M 65.344605,71.904371 V 66.780288"
       id="path13" /><use
       xlink:href="#file.svg:symbol8"
       style="fill:#0baeff;fill-opacity:1;stroke:#0098d1;stroke-opacity:0.247321"
       id="use1-6"
       transform="matrix(0.44645601,0,0,0.41965372,132.68497,19.426147)" /><text
       xml:space="preserve"
       style="font-style:normal;font-variant:normal;font-weight:normal;font-stretch:normal;font-size:2.11667px;font-family:C059;-inkscape-font-specification:C059;writing-mode:lr-tb;direction:ltr;fill:#0baeff;fill-opacity:1;stroke:none;stroke-width:0.552;stroke-dasharray:none;stroke-opacity:0.584788"
       x="85.920479"
       y="30.69245"
       id="text16"><tspan
         sodipodi:role="line"
         id="tspan16"
         style="fill:#0baeff;fill-opacity:1;stroke:none;stroke-width:0.552;stroke-opacity:0.584788"
         x="85.920479"
         y="30.69245" /></text><g
       style="overflow:visible"
       id="g16"
       transform="matrix(0.01528758,0,0,0.01528758,138.01725,25.495574)"><path
         d="m 135.9,476.5 3.8,8.9 3.8,-9.1 4.1,-8.5 39.6,-78 c 0.7,-1.3 1.4,-2.4 2.2,-3.1 0.7,-0.7 1.6,-1.3 2.5,-1.6 0.9,-0.4 2,-0.5 3.1,-0.5 h 31.4 V 538.7 H 194.9 V 450 c 0,-4.3 0.2,-9 0.6,-14 l -40.8,79.3 c -1.3,2.5 -3,4.3 -5.1,5.6 -2.2,1.3 -4.6,1.9 -7.4,1.9 h -4.9 c -2.8,0 -5.2,-0.6 -7.4,-1.9 -2.2,-1.3 -3.9,-3.1 -5.1,-5.6 L 83.7,435.9 c 0.3,2.5 0.5,4.9 0.6,7.4 l 0.2,6.7 v 88.7 H 53 V 384.5 h 31.4 c 1.2,0 2.2,0.2 3.1,0.5 a 9.63,9.63 0 0 1 2.5,1.6 c 0.7,0.7 1.5,1.8 2.2,3.1 l 39.7,78.3 z m 259.5,-15 c 0,6.6 -0.7,13 -2.1,19.1 -1.4,6.1 -3.4,11.8 -5.9,17.2 -2.6,5.4 -5.8,10.3 -9.5,14.9 -3.8,4.6 -8.1,8.6 -12.9,12.2 l 39,42.6 h -29.4 c -4.2,0 -8.1,-0.5 -11.5,-1.5 -3.5,-1 -6.5,-3.1 -9.2,-6.2 l -19.2,-21.5 c -3.1,0.6 -6.3,1.1 -9.5,1.5 -3.2,0.4 -6.5,0.5 -9.9,0.5 -12,0 -22.9,-2 -32.8,-6 -9.9,-4 -18.3,-9.6 -25.3,-16.7 a 74.13,74.13 0 0 1 -16.3,-25 c -3.8,-9.6 -5.8,-20 -5.8,-31.1 0,-11.1 1.9,-21.5 5.8,-31.1 a 74.13,74.13 0 0 1 16.3,-25 c 7,-7.1 15.5,-12.6 25.3,-16.6 9.9,-4 20.8,-6 32.8,-6 12,0 22.9,2 32.7,6.1 9.8,4.1 18.3,9.6 25.2,16.7 7,7.1 12.4,15.4 16.2,25 4.1,9.5 6,19.8 6,30.9 z m -36.6,0 c 0,-7.6 -1,-14.5 -3,-20.6 -2,-6.1 -4.8,-11.3 -8.5,-15.5 -3.7,-4.2 -8.2,-7.5 -13.6,-9.7 -5.4,-2.3 -11.5,-3.4 -18.3,-3.4 -6.9,0 -13.1,1.1 -18.5,3.4 -5.4,2.3 -9.9,5.5 -13.6,9.7 -3.7,4.2 -6.5,9.4 -8.5,15.5 -2,6.1 -3,13 -3,20.6 0,7.7 1,14.6 3,20.7 2,6.1 4.8,11.3 8.5,15.5 3.7,4.2 8.3,7.5 13.6,9.7 5.4,2.2 11.5,3.3 18.5,3.3 6.8,0 12.9,-1.1 18.3,-3.3 5.4,-2.2 9.9,-5.4 13.6,-9.7 3.7,-4.2 6.5,-9.4 8.5,-15.5 2,-6.1 3,-13 3,-20.7 z m 151,-77.1 v 28.4 H 468.4 V 538.6 H 432.6 V 412.8 h -41.4 v -28.4 z m 137.2,0 v 28.4 H 603.6 V 538.6 H 567.8 V 412.8 h -41.4 v -28.4 z"
         fill="#660066"
         id="path1" /><path
         d="m 197.1,157.6 v 46.7 c 73.8,0.1 134,59.3 135,132.4 h 45.5 C 376.5,238.4 296.1,158.6 197.1,157.6 Z m 0,-96.5 v 46.7 c 127.4,0.1 231.1,102.5 232.1,228.9 h 45.5 C 473.7,185.2 349.7,62.1 197.1,61.1 Z M 502.9,217.3 V 121.4 C 491.1,105.3 477,88 462.5,73.6 446.5,57.7 428.4,43.5 410.2,30.9 H 309 c 88.3,31.8 159.1,100 193.9,186.4 z"
         fill="#ffffff"
         id="path2" /><path
         d="m 197.1,204.4 v 117.1 c 0,8.4 6.8,15.3 15.3,15.3 H 332 C 331,263.6 270.9,204.4 197.1,204.4 Z m 0,-96.6 v 49.8 c 99,0.9 179.4,80.7 180.4,179.1 h 51.7 C 428.2,210.4 324.5,107.9 197.1,107.8 Z M 502.9,321.4 V 217.3 C 468.1,130.9 397.3,62.7 309,30.8 h -96.6 c -8.4,0 -15.3,6.8 -15.3,15.3 v 15 c 152.6,0.9 276.6,124 277.6,275.6 h 13 c 8.4,0 15.2,-6.8 15.2,-15.3 z M 462.6,73.6 c 14.5,14.4 28.6,31.7 40.4,47.8 V 46.1 c 0,-8.4 -6.8,-15.3 -15.3,-15.3 h -77.3 c 18,12.6 36.2,26.9 52.2,42.8 z"
         fill="#660066"
         id="path3" /></g><use
       xlink:href="#FlowSymbols.svg:Process"
       style="fill:#aaccee;stroke:#000000"
       id="use16"
       transform="matrix(0.15681401,0,0,0.15681401,76.758875,19.680844)" /><text
       xml:space="preserve"
       style="font-size:3.52778px;text-align:center;writing-mode:lr-tb;direction:ltr;text-anchor:middle;fill:#000000;stroke-width:0.264583"
       x="88.471992"
       y="30.605717"
       id="text18"><tspan
         sodipodi:role="line"
         style="font-style:normal;font-variant:normal;font-weight:bold;font-stretch:normal;font-size:3.52778px;font-family:sans-serif;-inkscape-font-specification:'sans-serif Bold';stroke-width:0.264583"
         x="88.471992"
         y="30.605717"
         id="tspan18">TX</tspan><tspan
         sodipodi:role="line"
         style="font-style:normal;font-variant:normal;font-weight:bold;font-stretch:normal;font-size:3.52778px;font-family:sans-serif;-inkscape-font-specification:'sans-serif Bold';stroke-width:0.264583"
         x="88.471992"
         y="35.015442"
         id="tspan19">Module</tspan></text><use
       xlink:href="#font-awesome.svg:arrow-right"
       id="use19"
       transform="matrix(0.10251221,0,0,0.10251221,69.710822,26.586031)"
       style="fill:#a2bf01;fill-opacity:1" /><use
       xlink:href="#taiga.svg:icon-reload"
       width="1024"
       height="1024"
       id="use1-06"
       transform="matrix(0.00670159,0,0,0.00670159,100.1303,27.959087)"
       style="fill:#ff5f0b;fill-opacity:1;stroke:#55ff3e;stroke-opacity:1" /><use
       xlink:href="#font-awesome.svg:arrow-right"
       id="use20"
       transform="matrix(0.10251221,0,0,0.10251221,123.46856,26.586031)"
       style="fill:#a2bf01;fill-opacity:1" /><use
       xlink:href="#simple-icons.svg:brand-hackthebox"
       width="24"
       height="24"
       id="use1-061"
       transform="matrix(0.57012651,0,0,0.57012651,162.58948,22.137544)" /><use
       xlink:href="#hardware.svg:symbol14"
       style="fill:#000000;stroke:#000000"
       id="use1-55"
       transform="matrix(0.26458333,0,0,0.26458333,153.332,25.531519)" /><use
       xlink:href="#hardware.svg:symbol15"
       style="fill:#000000;stroke:#000000"
       id="use1-47"
       transform="matrix(0.26458333,0,0,0.26458333,152.95518,21.146307)" /><text
       xml:space="preserve"
       style="font-style:normal;font-variant:normal;font-weight:normal;font-stretch:normal;font-size:3.52777px;font-family:C059;-inkscape-font-specification:C059;text-align:center;writing-mode:lr-tb;direction:ltr;text-anchor:middle;fill:#ff5f0b;fill-opacity:1;stroke:#55ff3e;stroke-width:0.552;stroke-dasharray:none;stroke-opacity:1"
       x="169.66695"
       y="16.129469"
       id="text22"><tspan
         sodipodi:role="line"
         id="tspan22"
         style="font-style:normal;font-variant:normal;font-weight:normal;font-stretch:normal;font-family:sans-serif;-inkscape-font-specification:sans-serif;fill:#000000;fill-opacity:1;stroke:none;stroke-width:0.552;stroke-opacity:1"
         x="169.66695"
         y="16.129469">MQTT </tspan><tspan
         sodipodi:role="line"
         style="font-style:normal;font-variant:normal;font-weight:normal;font-stretch:normal;font-family:sans-serif;-inkscape-font-specification:sans-serif;fill:#000000;fill-opacity:1;stroke:none;stroke-width:0.552;stroke-opacity:1"
         x="169.66695"
         y="20.708075"
         id="tspan23">Broker</tspan></text><use
       xlink:href="#hardware.svg:symbol14"
       style="fill:#000000;stroke:#000000"
       id="use22"
       transform="matrix(-0.26458333,0,0,0.26458333,185.05858,25.545933)" /><use
       xlink:href="#hardware.svg:symbol15"
       style="fill:#000000;stroke:#000000"
       id="use23"
       transform="matrix(-0.26458333,0,0,0.26458333,185.4354,21.160721)" /><use
       xlink:href="#FlowSymbols.svg:Process"
       style="fill:#aaccee;stroke:#000000"
       id="use24"
       transform="matrix(0.15681401,0,0,0.15681401,182.62026,18.210547)" /><text
       xml:space="preserve"
       style="font-size:3.52778px;text-align:center;writing-mode:lr-tb;direction:ltr;text-anchor:middle;fill:#000000;stroke-width:0.264583"
       x="194.33337"
       y="26.562401"
       id="text25"><tspan
         sodipodi:role="line"
         style="font-style:normal;font-variant:normal;font-weight:bold;font-stretch:normal;font-size:3.52778px;font-family:sans-serif;-inkscape-font-specification:'sans-serif Bold';stroke-width:0.264583"
         x="194.33337"
         y="26.562401"
         id="tspan24">RX</tspan><tspan
         sodipodi:role="line"
         style="font-style:normal;font-variant:normal;font-weight:bold;font-stretch:normal;font-size:3.52778px;font-family:sans-serif;-inkscape-font-specification:'sans-serif Bold';stroke-width:0.264583"
         x="194.33337"
         y="30.972126"
         id="tspan25">Module</tspan><tspan
         sodipodi:role="line"
         style="font-style:normal;font-variant:normal;font-weight:bold;font-stretch:normal;font-size:3.52778px;font-family:sans-serif;-inkscape-font-specification:'sans-serif Bold';stroke-width:0.264583"
         x="194.33337"
         y="35.381851"
         id="tspan26">Team 10</tspan></text></g></svg>
